<svg width="114" height="114" viewBox="0 0 114 114" fill="none" xmlns="http://www.w3.org/2000/svg">
<path d="M96.63 1.5H84.55L80 1.5C74 1.5 77.224 1.5 73 1.5L41 1.5C36.771 1.5 35.5 1.5 32 1.5H28.681H16.601C8.26298 1.5 1.50098 8.258 1.50098 16.6V96.627C1.50098 104.965 8.26298 111.729 16.601 111.729H96.63C104.97 111.729 111.73 104.965 111.73 96.627V16.6C111.729 8.258 104.969 1.5 96.63 1.5ZM56.616 86.446C40.141 86.446 26.786 73.087 26.786 56.613C26.786 40.138 40.141 26.784 56.616 26.784C73.091 26.784 86.448 40.138 86.448 56.613C86.448 73.086 73.091 86.446 56.616 86.446Z" fill="#D8E5EA"/>
<path d="M96.63 113.229H16.6C7.447 113.229 0 105.782 0 96.627V16.6C0 7.447 7.447 8.10623e-06 16.6 8.10623e-06H27.18L31.2559 1.64509e-05C36 3.57628e-06 31.288 8.10623e-06 36.337 8.10623e-06H56.616L76.898 0C81.944 0 85.5 8.10623e-06 82 8.10623e-06H86.05H96.63C105.783 8.10623e-06 113.23 7.447 113.23 16.6V96.627C113.229 105.782 105.782 113.229 96.63 113.229ZM16.6 3.00001C9.101 3.00001 3 9.101 3 16.6V96.627C3 104.127 9.101 110.229 16.6 110.229H96.629C104.128 110.229 110.229 104.127 110.229 96.627V16.6C110.229 9.101 104.128 3.00001 96.629 3.00001H84.549C83.72 3.00001 84.549 3.00001 83.049 3.00001H81C79 3.00001 80.29 3.00001 76.898 3.00001H56.616H36.337C32.942 3.00001 35.5 3.00001 31.5 3.00001H30.0097C29 3.00001 29.51 3.00001 28.681 3.00001H16.6ZM56.616 87.946C39.341 87.946 25.286 73.89 25.286 56.613C25.286 39.338 39.341 25.284 56.616 25.284C73.892 25.284 87.948 39.338 87.948 56.613C87.948 73.89 73.892 87.946 56.616 87.946ZM56.616 28.284C40.995 28.284 28.286 40.992 28.286 56.613C28.286 72.236 40.995 84.946 56.616 84.946C72.239 84.946 84.948 72.236 84.948 56.613C84.948 40.992 72.239 28.284 56.616 28.284Z" fill="#33363A"/>
<path d="M56.616 92.372C74.8187 92.372 89.575 77.6157 89.575 59.413C89.575 41.2102 74.8187 26.454 56.616 26.454C38.4132 26.454 23.657 41.2102 23.657 59.413C23.657 77.6157 38.4132 92.372 56.616 92.372Z" fill="#FF5050"/>
<path d="M23.657 59.413C23.657 77.618 38.413 92.374 56.616 92.374C74.819 92.374 89.575 77.618 89.575 59.413H23.657Z" fill="white"/>
<path d="M56.616 91.229C74.819 91.229 89.575 76.9831 89.575 59.413H23.657C23.657 76.9831 38.413 91.229 56.616 91.229Z" fill="white"/>
<path d="M56.616 93.874C37.615 93.874 22.157 78.415 22.157 59.413C22.157 40.413 37.615 24.956 56.616 24.956C75.617 24.956 91.075 40.414 91.075 59.413C91.075 78.415 75.617 93.874 56.616 93.874ZM56.616 27.956C39.269 27.956 25.157 42.067 25.157 59.413C25.157 76.761 39.269 90.874 56.616 90.874C73.963 90.874 88.075 76.76 88.075 59.413C88.075 42.067 73.963 27.956 56.616 27.956Z" fill="#33363A"/>
<path d="M89.575 60.913H23.657C22.828 60.913 22.157 60.241 22.157 59.413C22.157 58.585 22.828 57.913 23.657 57.913H89.575C90.404 57.913 91.075 58.585 91.075 59.413C91.075 60.241 90.404 60.913 89.575 60.913Z" fill="#33363A"/>
<path d="M56.615 74.087C62.6338 74.087 67.513 69.2078 67.513 63.189C67.513 57.1702 62.6338 52.291 56.615 52.291C50.5962 52.291 45.717 57.1702 45.717 63.189C45.717 69.2078 50.5962 74.087 56.615 74.087Z" fill="#A7BBC1"/>
<path d="M56.6149 70.384C62.6343 70.384 67.5139 65.5043 67.5139 59.485C67.5139 53.4656 62.6343 48.586 56.6149 48.586C50.5956 48.586 45.7159 53.4656 45.7159 59.485C45.7159 65.5043 50.5956 70.384 56.6149 70.384Z" fill="white"/>
<path d="M56.616 71.882C53.304 71.882 50.191 70.593 47.848 68.253C43.015 63.417 43.015 55.552 47.847 50.717C50.19 48.375 53.304 47.086 56.616 47.086C59.928 47.086 63.041 48.376 65.382 50.717C67.724 53.059 69.014 56.172 69.014 59.485C69.014 62.798 67.724 65.912 65.381 68.253C63.041 70.593 59.928 71.882 56.616 71.882ZM56.616 50.086C54.106 50.086 51.745 51.064 49.969 52.838C46.306 56.503 46.306 62.466 49.969 66.131C51.744 67.904 54.105 68.882 56.615 68.882C59.125 68.882 61.485 67.905 63.259 66.131C65.035 64.356 66.013 61.995 66.013 59.485C66.013 56.975 65.035 54.614 63.259 52.839C61.486 51.063 59.127 50.086 56.616 50.086Z" fill="#33363A"/>
<path d="M100.219 88.874H90.596C89.767 88.874 89.096 88.202 89.096 87.374C89.096 86.546 89.767 85.874 90.596 85.874H100.219C101.048 85.874 101.719 86.546 101.719 87.374C101.719 88.202 101.048 88.874 100.219 88.874Z" fill="#33363A"/>
<path d="M100.219 94.731H90.596C89.767 94.731 89.096 94.059 89.096 93.231C89.096 92.403 89.767 91.731 90.596 91.731H100.219C101.048 91.731 101.719 92.403 101.719 93.231C101.719 94.059 101.048 94.731 100.219 94.731Z" fill="#33363A"/>
<path d="M100.219 100.586H90.596C89.767 100.586 89.096 99.914 89.096 99.086C89.096 98.258 89.767 97.586 90.596 97.586H100.219C101.048 97.586 101.719 98.258 101.719 99.086C101.719 99.914 101.048 100.586 100.219 100.586Z" fill="#33363A"/>
<path d="M19.427 29.064C22.9633 29.064 25.83 26.1973 25.83 22.661C25.83 19.1247 22.9633 16.258 19.427 16.258C15.8907 16.258 13.024 19.1247 13.024 22.661C13.024 26.1973 15.8907 29.064 19.427 29.064Z" fill="#A7BBC1"/>
<path d="M19.427 25.887C22.9633 25.887 25.83 23.0203 25.83 19.484C25.83 15.9477 22.9633 13.081 19.427 13.081C15.8907 13.081 13.024 15.9477 13.024 19.484C13.024 23.0203 15.8907 25.887 19.427 25.887Z" fill="#93FF5A"/>
<path d="M14.899 24.012C12.399 21.512 12.399 17.457 14.899 14.956C17.401 12.456 21.454 12.456 23.954 14.956" fill="#65E529"/>
<path d="M19.427 27.387C17.316 27.387 15.332 26.565 13.839 25.073C10.757 21.992 10.757 16.978 13.838 13.896C15.332 12.403 17.317 11.582 19.427 11.582C21.537 11.582 23.522 12.404 25.014 13.896C26.507 15.389 27.33 17.374 27.33 19.485C27.33 21.596 26.507 23.581 25.014 25.073C23.522 26.565 21.538 27.387 19.427 27.387ZM19.427 14.582C18.117 14.582 16.885 15.092 15.959 16.018C14.048 17.93 14.048 21.04 15.959 22.952C16.885 23.877 18.117 24.388 19.427 24.388C20.736 24.388 21.967 23.878 22.893 22.952C23.82 22.026 24.33 20.795 24.33 19.485C24.33 18.175 23.82 16.944 22.893 16.018C21.968 15.091 20.737 14.582 19.427 14.582Z" fill="#33363A"/>
</svg>
